<?xml version="1.0" encoding="UTF-8" standalone="no"?>
<!DOCTYPE svg PUBLIC "-//W3C//DTD SVG 1.1//EN"
 "http://www.w3.org/Graphics/SVG/1.1/DTD/svg11.dtd">
<!-- Generated by graphviz version 2.46.0 (20210119.1425)
 -->
<!-- Title: dependencies Pages: 1 -->
<svg width="1001pt" height="211pt"
 viewBox="0.00 0.00 1001.00 211.00" xmlns="http://www.w3.org/2000/svg" xmlns:xlink="http://www.w3.org/1999/xlink">
<g id="graph0" class="graph" transform="scale(1 1) rotate(0) translate(4 207)">
<title>dependencies</title>
<polygon fill="white" stroke="transparent" points="-4,4 -4,-207 997,-207 997,4 -4,4"/>
<text text-anchor="start" x="475.51" y="-42.4" font-family="sans-serif" font-weight="bold" font-size="14.00">Legend</text>
<polygon fill="#ffffb3" stroke="transparent" points="262.5,-10 262.5,-30 282.5,-30 282.5,-10 262.5,-10"/>
<text text-anchor="start" x="286.13" y="-15.4" font-family="sans-serif" font-size="14.00"> &#160;Declarations</text>
<polygon fill="#8dd3c7" stroke="transparent" points="375.5,-10 375.5,-30 395.5,-30 395.5,-10 375.5,-10"/>
<text text-anchor="start" x="399.23" y="-15.4" font-family="sans-serif" font-size="14.00"> &#160;Module</text>
<polygon fill="#80b1d3" stroke="transparent" points="461.5,-10 461.5,-30 481.5,-30 481.5,-10 461.5,-10"/>
<text text-anchor="start" x="485.28" y="-15.4" font-family="sans-serif" font-size="14.00"> &#160;Bootstrap</text>
<polygon fill="#fdb462" stroke="transparent" points="558.5,-10 558.5,-30 578.5,-30 578.5,-10 558.5,-10"/>
<text text-anchor="start" x="582.17" y="-15.4" font-family="sans-serif" font-size="14.00"> &#160;Providers</text>
<polygon fill="#fb8072" stroke="transparent" points="654.5,-10 654.5,-30 674.5,-30 674.5,-10 654.5,-10"/>
<text text-anchor="start" x="678.23" y="-15.4" font-family="sans-serif" font-size="14.00"> &#160;Exports</text>
<g id="clust1" class="cluster">
<title>cluster_ArticlesModule</title>
<polygon fill="none" stroke="black" stroke-dasharray="1,5" points="8,-70 8,-195 985,-195 985,-70 8,-70"/>
</g>
<g id="clust7" class="cluster">
<title>cluster_ArticlesModule_imports</title>
<polygon fill="none" stroke="black" points="696,-78 696,-130 977,-130 977,-78 696,-78"/>
</g>
<g id="clust2" class="cluster">
<title>cluster_ArticlesModule_declarations</title>
<polygon fill="none" stroke="black" points="16,-78 16,-130 688,-130 688,-78 16,-78"/>
</g>
<!-- ArticleCardComponent -->
<g id="node1" class="node">
<title>ArticleCardComponent</title>
<polygon fill="#ffffb3" stroke="black" points="679.91,-122 532.09,-122 532.09,-86 679.91,-86 679.91,-122"/>
<text text-anchor="middle" x="606" y="-99.8" font-family="Times,serif" font-size="14.00">ArticleCardComponent</text>
</g>
<!-- ArticlesModule -->
<g id="node5" class="node">
<title>ArticlesModule</title>
<polygon fill="#8dd3c7" stroke="black" points="572.86,-187 569.86,-191 548.86,-191 545.86,-187 469.14,-187 469.14,-151 572.86,-151 572.86,-187"/>
<text text-anchor="middle" x="521" y="-164.8" font-family="Times,serif" font-size="14.00">ArticlesModule</text>
</g>
<!-- ArticleCardComponent&#45;&gt;ArticlesModule -->
<g id="edge1" class="edge">
<title>ArticleCardComponent&#45;&gt;ArticlesModule</title>
<path fill="none" stroke="black" d="M552.61,-122.11C552.61,-122.11 552.61,-140.99 552.61,-140.99"/>
<polygon fill="black" stroke="black" points="549.11,-140.99 552.61,-150.99 556.11,-140.99 549.11,-140.99"/>
</g>
<!-- ArticleDetailComponent -->
<g id="node2" class="node">
<title>ArticleDetailComponent</title>
<polygon fill="#ffffb3" stroke="black" points="514.41,-122 359.59,-122 359.59,-86 514.41,-86 514.41,-122"/>
<text text-anchor="middle" x="437" y="-99.8" font-family="Times,serif" font-size="14.00">ArticleDetailComponent</text>
</g>
<!-- ArticleDetailComponent&#45;&gt;ArticlesModule -->
<g id="edge2" class="edge">
<title>ArticleDetailComponent&#45;&gt;ArticlesModule</title>
<path fill="none" stroke="black" d="M491.64,-122.11C491.64,-122.11 491.64,-140.99 491.64,-140.99"/>
<polygon fill="black" stroke="black" points="488.14,-140.99 491.64,-150.99 495.14,-140.99 488.14,-140.99"/>
</g>
<!-- ArticleListComponent -->
<g id="node3" class="node">
<title>ArticleListComponent</title>
<polygon fill="#ffffb3" stroke="black" points="341.98,-122 200.02,-122 200.02,-86 341.98,-86 341.98,-122"/>
<text text-anchor="middle" x="271" y="-99.8" font-family="Times,serif" font-size="14.00">ArticleListComponent</text>
</g>
<!-- ArticleListComponent&#45;&gt;ArticlesModule -->
<g id="edge3" class="edge">
<title>ArticleListComponent&#45;&gt;ArticlesModule</title>
<path fill="none" stroke="black" d="M271,-122.02C271,-139.37 271,-163 271,-163 271,-163 458.9,-163 458.9,-163"/>
<polygon fill="black" stroke="black" points="458.9,-166.5 468.9,-163 458.9,-159.5 458.9,-166.5"/>
</g>
<!-- ArticleSearchComponent -->
<g id="node4" class="node">
<title>ArticleSearchComponent</title>
<polygon fill="#ffffb3" stroke="black" points="182.29,-122 23.71,-122 23.71,-86 182.29,-86 182.29,-122"/>
<text text-anchor="middle" x="103" y="-99.8" font-family="Times,serif" font-size="14.00">ArticleSearchComponent</text>
</g>
<!-- ArticleSearchComponent&#45;&gt;ArticlesModule -->
<g id="edge4" class="edge">
<title>ArticleSearchComponent&#45;&gt;ArticlesModule</title>
<path fill="none" stroke="black" d="M103,-122.28C103,-143.32 103,-175 103,-175 103,-175 458.91,-175 458.91,-175"/>
<polygon fill="black" stroke="black" points="458.91,-178.5 468.91,-175 458.91,-171.5 458.91,-178.5"/>
</g>
<!-- ArticlesRoutingModule -->
<g id="node6" class="node">
<title>ArticlesRoutingModule</title>
<polygon fill="#8dd3c7" stroke="black" points="969.48,-122 966.48,-126 945.48,-126 942.48,-122 820.52,-122 820.52,-86 969.48,-86 969.48,-122"/>
<text text-anchor="middle" x="895" y="-99.8" font-family="Times,serif" font-size="14.00">ArticlesRoutingModule</text>
</g>
<!-- ArticlesRoutingModule&#45;&gt;ArticlesModule -->
<g id="edge5" class="edge">
<title>ArticlesRoutingModule&#45;&gt;ArticlesModule</title>
<path fill="none" stroke="black" d="M895,-122.28C895,-143.32 895,-175 895,-175 895,-175 583,-175 583,-175"/>
<polygon fill="black" stroke="black" points="583,-171.5 573,-175 583,-178.5 583,-171.5"/>
</g>
<!-- SharedModule -->
<g id="node7" class="node">
<title>SharedModule</title>
<polygon fill="#8dd3c7" stroke="black" points="802.42,-122 799.42,-126 778.42,-126 775.42,-122 703.58,-122 703.58,-86 802.42,-86 802.42,-122"/>
<text text-anchor="middle" x="753" y="-99.8" font-family="Times,serif" font-size="14.00">SharedModule</text>
</g>
<!-- SharedModule&#45;&gt;ArticlesModule -->
<g id="edge6" class="edge">
<title>SharedModule&#45;&gt;ArticlesModule</title>
<path fill="none" stroke="black" d="M753,-122.02C753,-139.37 753,-163 753,-163 753,-163 583.07,-163 583.07,-163"/>
<polygon fill="black" stroke="black" points="583.07,-159.5 573.07,-163 583.07,-166.5 583.07,-159.5"/>
</g>
</g>
</svg>
