<?xml version="1.0" encoding="UTF-8" standalone="no"?>
<!DOCTYPE svg PUBLIC "-//W3C//DTD SVG 1.1//EN"
 "http://www.w3.org/Graphics/SVG/1.1/DTD/svg11.dtd">
<!-- Generated by graphviz version 2.46.0 (20210119.1425)
 -->
<!-- Title: dependencies Pages: 1 -->
<svg width="1068pt" height="284pt"
 viewBox="0.00 0.00 1068.00 284.00" xmlns="http://www.w3.org/2000/svg" xmlns:xlink="http://www.w3.org/1999/xlink">
<g id="graph0" class="graph" transform="scale(1 1) rotate(0) translate(4 280)">
<title>dependencies</title>
<polygon fill="white" stroke="transparent" points="-4,4 -4,-280 1064,-280 1064,4 -4,4"/>
<text text-anchor="start" x="509.01" y="-42.4" font-family="sans-serif" font-weight="bold" font-size="14.00">Legend</text>
<polygon fill="#ffffb3" stroke="transparent" points="296,-10 296,-30 316,-30 316,-10 296,-10"/>
<text text-anchor="start" x="319.63" y="-15.4" font-family="sans-serif" font-size="14.00"> &#160;Declarations</text>
<polygon fill="#8dd3c7" stroke="transparent" points="409,-10 409,-30 429,-30 429,-10 409,-10"/>
<text text-anchor="start" x="432.73" y="-15.4" font-family="sans-serif" font-size="14.00"> &#160;Module</text>
<polygon fill="#80b1d3" stroke="transparent" points="495,-10 495,-30 515,-30 515,-10 495,-10"/>
<text text-anchor="start" x="518.78" y="-15.4" font-family="sans-serif" font-size="14.00"> &#160;Bootstrap</text>
<polygon fill="#fdb462" stroke="transparent" points="592,-10 592,-30 612,-30 612,-10 592,-10"/>
<text text-anchor="start" x="615.67" y="-15.4" font-family="sans-serif" font-size="14.00"> &#160;Providers</text>
<polygon fill="#fb8072" stroke="transparent" points="688,-10 688,-30 708,-30 708,-10 688,-10"/>
<text text-anchor="start" x="711.73" y="-15.4" font-family="sans-serif" font-size="14.00"> &#160;Exports</text>
<g id="clust1" class="cluster">
<title>cluster_AppModule</title>
<polygon fill="none" stroke="black" stroke-dasharray="1,5" points="8,-70 8,-268 1052,-268 1052,-70 8,-70"/>
</g>
<g id="clust5" class="cluster">
<title>cluster_AppModule_imports</title>
<polygon fill="none" stroke="black" points="673,-78 673,-130 1044,-130 1044,-78 673,-78"/>
</g>
<g id="clust2" class="cluster">
<title>cluster_AppModule_declarations</title>
<polygon fill="none" stroke="black" points="410,-78 410,-130 665,-130 665,-78 410,-78"/>
</g>
<g id="clust7" class="cluster">
<title>cluster_AppModule_bootstrap</title>
<polygon fill="none" stroke="black" points="542,-208 542,-260 666,-260 666,-208 542,-208"/>
</g>
<g id="clust8" class="cluster">
<title>cluster_AppModule_providers</title>
<polygon fill="none" stroke="black" points="16,-78 16,-130 402,-130 402,-78 16,-78"/>
</g>
<!-- AppComponent -->
<g id="node1" class="node">
<title>AppComponent</title>
<polygon fill="#ffffb3" stroke="black" points="656.94,-122 551.06,-122 551.06,-86 656.94,-86 656.94,-122"/>
<text text-anchor="middle" x="604" y="-99.8" font-family="Times,serif" font-size="14.00">AppComponent</text>
</g>
<!-- AppModule -->
<g id="node3" class="node">
<title>AppModule</title>
<polygon fill="#8dd3c7" stroke="black" points="645.66,-187 642.66,-191 621.66,-191 618.66,-187 562.34,-187 562.34,-151 645.66,-151 645.66,-187"/>
<text text-anchor="middle" x="604" y="-164.8" font-family="Times,serif" font-size="14.00">AppModule</text>
</g>
<!-- AppComponent&#45;&gt;AppModule -->
<g id="edge1" class="edge">
<title>AppComponent&#45;&gt;AppModule</title>
<path fill="none" stroke="black" d="M604,-122.11C604,-122.11 604,-140.99 604,-140.99"/>
<polygon fill="black" stroke="black" points="600.5,-140.99 604,-150.99 607.5,-140.99 600.5,-140.99"/>
</g>
<!-- HomeComponent -->
<g id="node2" class="node">
<title>HomeComponent</title>
<polygon fill="#ffffb3" stroke="black" points="533.55,-122 418.45,-122 418.45,-86 533.55,-86 533.55,-122"/>
<text text-anchor="middle" x="476" y="-99.8" font-family="Times,serif" font-size="14.00">HomeComponent</text>
</g>
<!-- HomeComponent&#45;&gt;AppModule -->
<g id="edge2" class="edge">
<title>HomeComponent&#45;&gt;AppModule</title>
<path fill="none" stroke="black" d="M476,-122.03C476,-138.4 476,-160 476,-160 476,-160 552.09,-160 552.09,-160"/>
<polygon fill="black" stroke="black" points="552.09,-163.5 562.09,-160 552.09,-156.5 552.09,-163.5"/>
</g>
<!-- AppComponent  -->
<g id="node7" class="node">
<title>AppComponent </title>
<polygon fill="#80b1d3" stroke="black" points="658.44,-252 549.56,-252 549.56,-216 658.44,-216 658.44,-252"/>
<text text-anchor="middle" x="604" y="-229.8" font-family="Times,serif" font-size="14.00">AppComponent </text>
</g>
<!-- AppModule&#45;&gt;AppComponent  -->
<g id="edge6" class="edge">
<title>AppModule&#45;&gt;AppComponent </title>
<path fill="none" stroke="black" stroke-dasharray="1,5" d="M604,-187.11C604,-187.11 604,-205.99 604,-205.99"/>
<polygon fill="black" stroke="black" points="600.5,-205.99 604,-215.99 607.5,-205.99 600.5,-205.99"/>
</g>
<!-- !environment -->
<g id="node4" class="node">
<title>!environment</title>
<polygon fill="#8dd3c7" stroke="black" points="1035.92,-122 1032.92,-126 1011.92,-126 1008.92,-122 944.08,-122 944.08,-86 1035.92,-86 1035.92,-122"/>
<text text-anchor="middle" x="990" y="-99.8" font-family="Times,serif" font-size="14.00">!environment</text>
</g>
<!-- !environment&#45;&gt;AppModule -->
<g id="edge3" class="edge">
<title>!environment&#45;&gt;AppModule</title>
<path fill="none" stroke="black" d="M990,-122.29C990,-144.21 990,-178 990,-178 990,-178 655.68,-178 655.68,-178"/>
<polygon fill="black" stroke="black" points="655.68,-174.5 645.68,-178 655.68,-181.5 655.68,-174.5"/>
</g>
<!-- AppRoutingModule -->
<g id="node5" class="node">
<title>AppRoutingModule</title>
<polygon fill="#8dd3c7" stroke="black" points="926.27,-122 923.27,-126 902.27,-126 899.27,-122 797.73,-122 797.73,-86 926.27,-86 926.27,-122"/>
<text text-anchor="middle" x="862" y="-99.8" font-family="Times,serif" font-size="14.00">AppRoutingModule</text>
</g>
<!-- AppRoutingModule&#45;&gt;AppModule -->
<g id="edge4" class="edge">
<title>AppRoutingModule&#45;&gt;AppModule</title>
<path fill="none" stroke="black" d="M862,-122.11C862,-141.34 862,-169 862,-169 862,-169 655.74,-169 655.74,-169"/>
<polygon fill="black" stroke="black" points="655.74,-165.5 645.74,-169 655.74,-172.5 655.74,-165.5"/>
</g>
<!-- SharedModule -->
<g id="node6" class="node">
<title>SharedModule</title>
<polygon fill="#8dd3c7" stroke="black" points="779.42,-122 776.42,-126 755.42,-126 752.42,-122 680.58,-122 680.58,-86 779.42,-86 779.42,-122"/>
<text text-anchor="middle" x="730" y="-99.8" font-family="Times,serif" font-size="14.00">SharedModule</text>
</g>
<!-- SharedModule&#45;&gt;AppModule -->
<g id="edge5" class="edge">
<title>SharedModule&#45;&gt;AppModule</title>
<path fill="none" stroke="black" d="M730,-122.03C730,-138.4 730,-160 730,-160 730,-160 655.96,-160 655.96,-160"/>
<polygon fill="black" stroke="black" points="655.96,-156.5 645.96,-160 655.96,-163.5 655.96,-156.5"/>
</g>
<!-- AuthExpiredInterceptor -->
<g id="node8" class="node">
<title>AuthExpiredInterceptor</title>
<ellipse fill="#fdb462" stroke="black" cx="291" cy="-104" rx="103.05" ry="18"/>
<text text-anchor="middle" x="291" y="-99.8" font-family="Times,serif" font-size="14.00">AuthExpiredInterceptor</text>
</g>
<!-- AuthExpiredInterceptor&#45;&gt;AppModule -->
<g id="edge7" class="edge">
<title>AuthExpiredInterceptor&#45;&gt;AppModule</title>
<path fill="none" stroke="black" d="M291,-122.11C291,-141.34 291,-169 291,-169 291,-169 552.11,-169 552.11,-169"/>
<polygon fill="black" stroke="black" points="552.11,-172.5 562.11,-169 552.11,-165.5 552.11,-172.5"/>
</g>
<!-- AuthInterceptor -->
<g id="node9" class="node">
<title>AuthInterceptor</title>
<ellipse fill="#fdb462" stroke="black" cx="97" cy="-104" rx="72.91" ry="18"/>
<text text-anchor="middle" x="97" y="-99.8" font-family="Times,serif" font-size="14.00">AuthInterceptor</text>
</g>
<!-- AuthInterceptor&#45;&gt;AppModule -->
<g id="edge8" class="edge">
<title>AuthInterceptor&#45;&gt;AppModule</title>
<path fill="none" stroke="black" d="M97,-122.29C97,-144.21 97,-178 97,-178 97,-178 552.08,-178 552.08,-178"/>
<polygon fill="black" stroke="black" points="552.08,-181.5 562.08,-178 552.08,-174.5 552.08,-181.5"/>
</g>
</g>
</svg>
