<?xml version="1.0" encoding="UTF-8" standalone="no"?>
<!DOCTYPE svg PUBLIC "-//W3C//DTD SVG 1.1//EN"
 "http://www.w3.org/Graphics/SVG/1.1/DTD/svg11.dtd">
<!-- Generated by graphviz version 2.46.0 (20210119.1425)
 -->
<!-- Title: dependencies Pages: 1 -->
<svg width="2978pt" height="290pt"
 viewBox="0.00 0.00 2978.00 290.00" xmlns="http://www.w3.org/2000/svg" xmlns:xlink="http://www.w3.org/1999/xlink">
<g id="graph0" class="graph" transform="scale(1 1) rotate(0) translate(4 286)">
<title>dependencies</title>
<polygon fill="white" stroke="transparent" points="-4,4 -4,-286 2974,-286 2974,4 -4,4"/>
<text text-anchor="start" x="1464.01" y="-42.4" font-family="sans-serif" font-weight="bold" font-size="14.00">Legend</text>
<polygon fill="#ffffb3" stroke="transparent" points="1251,-10 1251,-30 1271,-30 1271,-10 1251,-10"/>
<text text-anchor="start" x="1274.63" y="-15.4" font-family="sans-serif" font-size="14.00"> &#160;Declarations</text>
<polygon fill="#8dd3c7" stroke="transparent" points="1364,-10 1364,-30 1384,-30 1384,-10 1364,-10"/>
<text text-anchor="start" x="1387.73" y="-15.4" font-family="sans-serif" font-size="14.00"> &#160;Module</text>
<polygon fill="#80b1d3" stroke="transparent" points="1450,-10 1450,-30 1470,-30 1470,-10 1450,-10"/>
<text text-anchor="start" x="1473.78" y="-15.4" font-family="sans-serif" font-size="14.00"> &#160;Bootstrap</text>
<polygon fill="#fdb462" stroke="transparent" points="1547,-10 1547,-30 1567,-30 1567,-10 1547,-10"/>
<text text-anchor="start" x="1570.67" y="-15.4" font-family="sans-serif" font-size="14.00"> &#160;Providers</text>
<polygon fill="#fb8072" stroke="transparent" points="1643,-10 1643,-30 1663,-30 1663,-10 1643,-10"/>
<text text-anchor="start" x="1666.73" y="-15.4" font-family="sans-serif" font-size="14.00"> &#160;Exports</text>
<g id="clust1" class="cluster">
<title>cluster_AppModule</title>
<polygon fill="none" stroke="black" stroke-dasharray="1,5" points="8,-70 8,-274 1051,-274 1051,-70 8,-70"/>
</g>
<g id="clust2" class="cluster">
<title>cluster_AppModule_declarations</title>
<polygon fill="none" stroke="black" points="410,-78 410,-130 665,-130 665,-78 410,-78"/>
</g>
<g id="clust5" class="cluster">
<title>cluster_AppModule_imports</title>
<polygon fill="none" stroke="black" points="673,-78 673,-130 1043,-130 1043,-78 673,-78"/>
</g>
<g id="clust7" class="cluster">
<title>cluster_AppModule_bootstrap</title>
<polygon fill="none" stroke="black" points="542,-214 542,-266 666,-266 666,-214 542,-214"/>
</g>
<g id="clust8" class="cluster">
<title>cluster_AppModule_providers</title>
<polygon fill="none" stroke="black" points="16,-78 16,-130 402,-130 402,-78 16,-78"/>
</g>
<g id="clust15" class="cluster">
<title>cluster_ArticlesModule</title>
<polygon fill="none" stroke="black" stroke-dasharray="1,5" points="1646,-70 1646,-198 2506,-198 2506,-70 1646,-70"/>
</g>
<g id="clust16" class="cluster">
<title>cluster_ArticlesModule_declarations</title>
<polygon fill="none" stroke="black" points="1826,-78 1826,-130 2498,-130 2498,-78 1826,-78"/>
</g>
<g id="clust21" class="cluster">
<title>cluster_ArticlesModule_imports</title>
<polygon fill="none" stroke="black" points="1654,-78 1654,-130 1818,-130 1818,-78 1654,-78"/>
</g>
<g id="clust31" class="cluster">
<title>cluster_AuthModule</title>
<polygon fill="none" stroke="black" stroke-dasharray="1,5" points="2514,-70 2514,-198 2962,-198 2962,-70 2514,-70"/>
</g>
<g id="clust32" class="cluster">
<title>cluster_AuthModule_declarations</title>
<polygon fill="none" stroke="black" points="2678,-78 2678,-130 2954,-130 2954,-78 2678,-78"/>
</g>
<g id="clust35" class="cluster">
<title>cluster_AuthModule_imports</title>
<polygon fill="none" stroke="black" points="2522,-78 2522,-130 2670,-130 2670,-78 2522,-78"/>
</g>
<g id="clust45" class="cluster">
<title>cluster_SharedModule</title>
<polygon fill="none" stroke="black" stroke-dasharray="1,5" points="1059,-138 1059,-206 1638,-206 1638,-138 1059,-138"/>
</g>
<g id="clust46" class="cluster">
<title>cluster_SharedModule_declarations</title>
<polygon fill="none" stroke="black" points="1356,-146 1356,-198 1630,-198 1630,-146 1356,-146"/>
</g>
<g id="clust50" class="cluster">
<title>cluster_SharedModule_exports</title>
<polygon fill="none" stroke="black" points="1067,-146 1067,-198 1348,-198 1348,-146 1067,-146"/>
</g>
<!-- AppComponent -->
<g id="node1" class="node">
<title>AppComponent</title>
<polygon fill="#ffffb3" stroke="black" points="656.94,-122 551.06,-122 551.06,-86 656.94,-86 656.94,-122"/>
<text text-anchor="middle" x="604" y="-99.8" font-family="Times,serif" font-size="14.00">AppComponent</text>
</g>
<!-- AppModule -->
<g id="node3" class="node">
<title>AppModule</title>
<polygon fill="#8dd3c7" stroke="black" points="645.66,-190 642.66,-194 621.66,-194 618.66,-190 562.34,-190 562.34,-154 645.66,-154 645.66,-190"/>
<text text-anchor="middle" x="604" y="-167.8" font-family="Times,serif" font-size="14.00">AppModule</text>
</g>
<!-- AppComponent&#45;&gt;AppModule -->
<g id="edge1" class="edge">
<title>AppComponent&#45;&gt;AppModule</title>
<path fill="none" stroke="black" d="M604,-122.22C604,-122.22 604,-143.73 604,-143.73"/>
<polygon fill="black" stroke="black" points="600.5,-143.73 604,-153.73 607.5,-143.73 600.5,-143.73"/>
</g>
<!-- HomeComponent -->
<g id="node2" class="node">
<title>HomeComponent</title>
<polygon fill="#ffffb3" stroke="black" points="533.55,-122 418.45,-122 418.45,-86 533.55,-86 533.55,-122"/>
<text text-anchor="middle" x="476" y="-99.8" font-family="Times,serif" font-size="14.00">HomeComponent</text>
</g>
<!-- HomeComponent&#45;&gt;AppModule -->
<g id="edge2" class="edge">
<title>HomeComponent&#45;&gt;AppModule</title>
<path fill="none" stroke="black" d="M476,-122.02C476,-139.37 476,-163 476,-163 476,-163 552.09,-163 552.09,-163"/>
<polygon fill="black" stroke="black" points="552.09,-166.5 562.09,-163 552.09,-159.5 552.09,-166.5"/>
</g>
<!-- AppComponent  -->
<g id="node7" class="node">
<title>AppComponent </title>
<polygon fill="#80b1d3" stroke="black" points="658.44,-258 549.56,-258 549.56,-222 658.44,-222 658.44,-258"/>
<text text-anchor="middle" x="604" y="-235.8" font-family="Times,serif" font-size="14.00">AppComponent </text>
</g>
<!-- AppModule&#45;&gt;AppComponent  -->
<g id="edge6" class="edge">
<title>AppModule&#45;&gt;AppComponent </title>
<path fill="none" stroke="black" stroke-dasharray="1,5" d="M604,-190.22C604,-190.22 604,-211.73 604,-211.73"/>
<polygon fill="black" stroke="black" points="600.5,-211.73 604,-221.73 607.5,-211.73 600.5,-211.73"/>
</g>
<!-- !environment -->
<g id="node4" class="node">
<title>!environment</title>
<polygon fill="#8dd3c7" stroke="black" points="918.92,-122 915.92,-126 894.92,-126 891.92,-122 827.08,-122 827.08,-86 918.92,-86 918.92,-122"/>
<text text-anchor="middle" x="873" y="-99.8" font-family="Times,serif" font-size="14.00">!environment</text>
</g>
<!-- !environment&#45;&gt;AppModule -->
<g id="edge3" class="edge">
<title>!environment&#45;&gt;AppModule</title>
<path fill="none" stroke="black" d="M873,-122.17C873,-143.5 873,-176 873,-176 873,-176 655.74,-176 655.74,-176"/>
<polygon fill="black" stroke="black" points="655.74,-172.5 645.74,-176 655.74,-179.5 655.74,-172.5"/>
</g>
<!-- AppRoutingModule -->
<g id="node5" class="node">
<title>AppRoutingModule</title>
<polygon fill="#8dd3c7" stroke="black" points="809.27,-122 806.27,-126 785.27,-126 782.27,-122 680.73,-122 680.73,-86 809.27,-86 809.27,-122"/>
<text text-anchor="middle" x="745" y="-99.8" font-family="Times,serif" font-size="14.00">AppRoutingModule</text>
</g>
<!-- AppRoutingModule&#45;&gt;AppModule -->
<g id="edge4" class="edge">
<title>AppRoutingModule&#45;&gt;AppModule</title>
<path fill="none" stroke="black" d="M745,-122.11C745,-141.34 745,-169 745,-169 745,-169 655.92,-169 655.92,-169"/>
<polygon fill="black" stroke="black" points="655.92,-165.5 645.92,-169 655.92,-172.5 655.92,-165.5"/>
</g>
<!-- SharedModule -->
<g id="node6" class="node">
<title>SharedModule</title>
<polygon fill="#8dd3c7" stroke="black" points="1035.42,-122 1032.42,-126 1011.42,-126 1008.42,-122 936.58,-122 936.58,-86 1035.42,-86 1035.42,-122"/>
<text text-anchor="middle" x="986" y="-99.8" font-family="Times,serif" font-size="14.00">SharedModule</text>
</g>
<!-- SharedModule&#45;&gt;AppModule -->
<g id="edge5" class="edge">
<title>SharedModule&#45;&gt;AppModule</title>
<path fill="none" stroke="black" d="M986,-122.32C986,-145.66 986,-183 986,-183 986,-183 655.97,-183 655.97,-183"/>
<polygon fill="black" stroke="black" points="655.97,-179.5 645.97,-183 655.97,-186.5 655.97,-179.5"/>
</g>
<!-- ArticlesModule -->
<g id="node14" class="node">
<title>ArticlesModule</title>
<polygon fill="#8dd3c7" stroke="black" points="2046.86,-190 2043.86,-194 2022.86,-194 2019.86,-190 1943.14,-190 1943.14,-154 2046.86,-154 2046.86,-190"/>
<text text-anchor="middle" x="1995" y="-167.8" font-family="Times,serif" font-size="14.00">ArticlesModule</text>
</g>
<!-- SharedModule&#45;&gt;ArticlesModule -->
<g id="edge14" class="edge">
<title>SharedModule&#45;&gt;ArticlesModule</title>
<path fill="none" stroke="black" d="M1035.29,-94C1187.78,-94 1641.73,-94 1641.73,-94 1641.73,-94 1641.73,-178 1641.73,-178 1641.73,-178 1932.87,-178 1932.87,-178"/>
<polygon fill="black" stroke="black" points="1932.87,-181.5 1942.87,-178 1932.87,-174.5 1932.87,-181.5"/>
</g>
<!-- AuthModule -->
<g id="node18" class="node">
<title>AuthModule</title>
<polygon fill="#8dd3c7" stroke="black" points="2716.55,-190 2713.55,-194 2692.55,-194 2689.55,-190 2629.45,-190 2629.45,-154 2716.55,-154 2716.55,-190"/>
<text text-anchor="middle" x="2673" y="-167.8" font-family="Times,serif" font-size="14.00">AuthModule</text>
</g>
<!-- SharedModule&#45;&gt;AuthModule -->
<g id="edge18" class="edge">
<title>SharedModule&#45;&gt;AuthModule</title>
<path fill="none" stroke="black" d="M961.39,-122.19C961.39,-130.28 961.39,-138 961.39,-138 961.39,-138 2640.26,-138 2640.26,-138 2640.26,-138 2640.26,-143.81 2640.26,-143.81"/>
<polygon fill="black" stroke="black" points="2636.76,-143.81 2640.26,-153.81 2643.76,-143.81 2636.76,-143.81"/>
</g>
<!-- FooterComponent  -->
<g id="node22" class="node">
<title>FooterComponent </title>
<polygon fill="#fb8072" stroke="black" points="1339.88,-190 1218.12,-190 1218.12,-154 1339.88,-154 1339.88,-190"/>
<text text-anchor="middle" x="1279" y="-167.8" font-family="Times,serif" font-size="14.00">FooterComponent </text>
</g>
<!-- SharedModule&#45;&gt;FooterComponent  -->
<g id="edge21" class="edge">
<title>SharedModule&#45;&gt;FooterComponent </title>
<path fill="none" stroke="black" stroke-dasharray="5,2" d="M1035.37,-115C1118.87,-115 1279,-115 1279,-115 1279,-115 1279,-143.96 1279,-143.96"/>
<polygon fill="black" stroke="black" points="1275.5,-143.96 1279,-153.96 1282.5,-143.96 1275.5,-143.96"/>
</g>
<!-- HeaderComponent  -->
<g id="node23" class="node">
<title>HeaderComponent </title>
<polygon fill="#fb8072" stroke="black" points="1200.74,-190 1075.26,-190 1075.26,-154 1200.74,-154 1200.74,-190"/>
<text text-anchor="middle" x="1138" y="-167.8" font-family="Times,serif" font-size="14.00">HeaderComponent </text>
</g>
<!-- SharedModule&#45;&gt;HeaderComponent  -->
<g id="edge22" class="edge">
<title>SharedModule&#45;&gt;HeaderComponent </title>
<path fill="none" stroke="black" stroke-dasharray="5,2" d="M1010.61,-122.03C1010.61,-139.06 1010.61,-162 1010.61,-162 1010.61,-162 1065.05,-162 1065.05,-162"/>
<polygon fill="black" stroke="black" points="1065.05,-165.5 1075.05,-162 1065.05,-158.5 1065.05,-165.5"/>
</g>
<!-- AuthExpiredInterceptor -->
<g id="node8" class="node">
<title>AuthExpiredInterceptor</title>
<ellipse fill="#fdb462" stroke="black" cx="291" cy="-104" rx="103.05" ry="18"/>
<text text-anchor="middle" x="291" y="-99.8" font-family="Times,serif" font-size="14.00">AuthExpiredInterceptor</text>
</g>
<!-- AuthExpiredInterceptor&#45;&gt;AppModule -->
<g id="edge7" class="edge">
<title>AuthExpiredInterceptor&#45;&gt;AppModule</title>
<path fill="none" stroke="black" d="M291,-122.22C291,-142.37 291,-172 291,-172 291,-172 552.11,-172 552.11,-172"/>
<polygon fill="black" stroke="black" points="552.11,-175.5 562.11,-172 552.11,-168.5 552.11,-175.5"/>
</g>
<!-- AuthInterceptor -->
<g id="node9" class="node">
<title>AuthInterceptor</title>
<ellipse fill="#fdb462" stroke="black" cx="97" cy="-104" rx="72.91" ry="18"/>
<text text-anchor="middle" x="97" y="-99.8" font-family="Times,serif" font-size="14.00">AuthInterceptor</text>
</g>
<!-- AuthInterceptor&#45;&gt;AppModule -->
<g id="edge8" class="edge">
<title>AuthInterceptor&#45;&gt;AppModule</title>
<path fill="none" stroke="black" d="M97,-122.25C97,-145.02 97,-181 97,-181 97,-181 552.08,-181 552.08,-181"/>
<polygon fill="black" stroke="black" points="552.08,-184.5 562.08,-181 552.08,-177.5 552.08,-184.5"/>
</g>
<!-- ArticleCardComponent -->
<g id="node10" class="node">
<title>ArticleCardComponent</title>
<polygon fill="#ffffb3" stroke="black" points="2153.91,-122 2006.09,-122 2006.09,-86 2153.91,-86 2153.91,-122"/>
<text text-anchor="middle" x="2080" y="-99.8" font-family="Times,serif" font-size="14.00">ArticleCardComponent</text>
</g>
<!-- ArticleCardComponent&#45;&gt;ArticlesModule -->
<g id="edge9" class="edge">
<title>ArticleCardComponent&#45;&gt;ArticlesModule</title>
<path fill="none" stroke="black" d="M2026.61,-122.22C2026.61,-122.22 2026.61,-143.73 2026.61,-143.73"/>
<polygon fill="black" stroke="black" points="2023.11,-143.73 2026.61,-153.73 2030.11,-143.73 2023.11,-143.73"/>
</g>
<!-- ArticleDetailComponent -->
<g id="node11" class="node">
<title>ArticleDetailComponent</title>
<polygon fill="#ffffb3" stroke="black" points="1988.41,-122 1833.59,-122 1833.59,-86 1988.41,-86 1988.41,-122"/>
<text text-anchor="middle" x="1911" y="-99.8" font-family="Times,serif" font-size="14.00">ArticleDetailComponent</text>
</g>
<!-- ArticleDetailComponent&#45;&gt;ArticlesModule -->
<g id="edge10" class="edge">
<title>ArticleDetailComponent&#45;&gt;ArticlesModule</title>
<path fill="none" stroke="black" d="M1965.64,-122.22C1965.64,-122.22 1965.64,-143.73 1965.64,-143.73"/>
<polygon fill="black" stroke="black" points="1962.14,-143.73 1965.64,-153.73 1969.14,-143.73 1962.14,-143.73"/>
</g>
<!-- ArticleListComponent -->
<g id="node12" class="node">
<title>ArticleListComponent</title>
<polygon fill="#ffffb3" stroke="black" points="2489.98,-122 2348.02,-122 2348.02,-86 2489.98,-86 2489.98,-122"/>
<text text-anchor="middle" x="2419" y="-99.8" font-family="Times,serif" font-size="14.00">ArticleListComponent</text>
</g>
<!-- ArticleListComponent&#45;&gt;ArticlesModule -->
<g id="edge11" class="edge">
<title>ArticleListComponent&#45;&gt;ArticlesModule</title>
<path fill="none" stroke="black" d="M2419,-122.29C2419,-144.21 2419,-178 2419,-178 2419,-178 2056.99,-178 2056.99,-178"/>
<polygon fill="black" stroke="black" points="2056.99,-174.5 2046.99,-178 2056.99,-181.5 2056.99,-174.5"/>
</g>
<!-- ArticleSearchComponent -->
<g id="node13" class="node">
<title>ArticleSearchComponent</title>
<polygon fill="#ffffb3" stroke="black" points="2330.29,-122 2171.71,-122 2171.71,-86 2330.29,-86 2330.29,-122"/>
<text text-anchor="middle" x="2251" y="-99.8" font-family="Times,serif" font-size="14.00">ArticleSearchComponent</text>
</g>
<!-- ArticleSearchComponent&#45;&gt;ArticlesModule -->
<g id="edge12" class="edge">
<title>ArticleSearchComponent&#45;&gt;ArticlesModule</title>
<path fill="none" stroke="black" d="M2251,-122.27C2251,-140.56 2251,-166 2251,-166 2251,-166 2057.11,-166 2057.11,-166"/>
<polygon fill="black" stroke="black" points="2057.11,-162.5 2047.11,-166 2057.11,-169.5 2057.11,-162.5"/>
</g>
<!-- ArticlesRoutingModule -->
<g id="node15" class="node">
<title>ArticlesRoutingModule</title>
<polygon fill="#8dd3c7" stroke="black" points="1810.48,-122 1807.48,-126 1786.48,-126 1783.48,-122 1661.52,-122 1661.52,-86 1810.48,-86 1810.48,-122"/>
<text text-anchor="middle" x="1736" y="-99.8" font-family="Times,serif" font-size="14.00">ArticlesRoutingModule</text>
</g>
<!-- ArticlesRoutingModule&#45;&gt;ArticlesModule -->
<g id="edge13" class="edge">
<title>ArticlesRoutingModule&#45;&gt;ArticlesModule</title>
<path fill="none" stroke="black" d="M1736,-122.27C1736,-140.56 1736,-166 1736,-166 1736,-166 1932.9,-166 1932.9,-166"/>
<polygon fill="black" stroke="black" points="1932.9,-169.5 1942.9,-166 1932.9,-162.5 1932.9,-169.5"/>
</g>
<!-- LoginComponent -->
<g id="node16" class="node">
<title>LoginComponent</title>
<polygon fill="#ffffb3" stroke="black" points="2946.28,-122 2831.72,-122 2831.72,-86 2946.28,-86 2946.28,-122"/>
<text text-anchor="middle" x="2889" y="-99.8" font-family="Times,serif" font-size="14.00">LoginComponent</text>
</g>
<!-- LoginComponent&#45;&gt;AuthModule -->
<g id="edge15" class="edge">
<title>LoginComponent&#45;&gt;AuthModule</title>
<path fill="none" stroke="black" d="M2889,-122.22C2889,-142.37 2889,-172 2889,-172 2889,-172 2726.71,-172 2726.71,-172"/>
<polygon fill="black" stroke="black" points="2726.71,-168.5 2716.71,-172 2726.71,-175.5 2726.71,-168.5"/>
</g>
<!-- RegisterComponent -->
<g id="node17" class="node">
<title>RegisterComponent</title>
<polygon fill="#ffffb3" stroke="black" points="2813.98,-122 2686.02,-122 2686.02,-86 2813.98,-86 2813.98,-122"/>
<text text-anchor="middle" x="2750" y="-99.8" font-family="Times,serif" font-size="14.00">RegisterComponent</text>
</g>
<!-- RegisterComponent&#45;&gt;AuthModule -->
<g id="edge16" class="edge">
<title>RegisterComponent&#45;&gt;AuthModule</title>
<path fill="none" stroke="black" d="M2701.39,-122.22C2701.39,-122.22 2701.39,-143.73 2701.39,-143.73"/>
<polygon fill="black" stroke="black" points="2697.89,-143.73 2701.39,-153.73 2704.89,-143.73 2697.89,-143.73"/>
</g>
<!-- AuthRoutingModule -->
<g id="node19" class="node">
<title>AuthRoutingModule</title>
<polygon fill="#8dd3c7" stroke="black" points="2662.17,-122 2659.17,-126 2638.17,-126 2635.17,-122 2529.83,-122 2529.83,-86 2662.17,-86 2662.17,-122"/>
<text text-anchor="middle" x="2596" y="-99.8" font-family="Times,serif" font-size="14.00">AuthRoutingModule</text>
</g>
<!-- AuthRoutingModule&#45;&gt;AuthModule -->
<g id="edge17" class="edge">
<title>AuthRoutingModule&#45;&gt;AuthModule</title>
<path fill="none" stroke="black" d="M2651.3,-122.22C2651.3,-122.22 2651.3,-143.73 2651.3,-143.73"/>
<polygon fill="black" stroke="black" points="2647.8,-143.73 2651.3,-153.73 2654.8,-143.73 2647.8,-143.73"/>
</g>
<!-- FooterComponent -->
<g id="node20" class="node">
<title>FooterComponent</title>
<polygon fill="#ffffb3" stroke="black" points="1621.88,-190 1504.12,-190 1504.12,-154 1621.88,-154 1621.88,-190"/>
<text text-anchor="middle" x="1563" y="-167.8" font-family="Times,serif" font-size="14.00">FooterComponent</text>
</g>
<!-- FooterComponent&#45;&gt;SharedModule -->
<g id="edge19" class="edge">
<title>FooterComponent&#45;&gt;SharedModule</title>
<path fill="none" stroke="black" d="M1563,-153.72C1563,-132.68 1563,-101 1563,-101 1563,-101 1045.44,-101 1045.44,-101"/>
<polygon fill="black" stroke="black" points="1045.44,-97.5 1035.44,-101 1045.44,-104.5 1045.44,-97.5"/>
</g>
<!-- HeaderComponent -->
<g id="node21" class="node">
<title>HeaderComponent</title>
<polygon fill="#ffffb3" stroke="black" points="1485.74,-190 1364.26,-190 1364.26,-154 1485.74,-154 1485.74,-190"/>
<text text-anchor="middle" x="1425" y="-167.8" font-family="Times,serif" font-size="14.00">HeaderComponent</text>
</g>
<!-- HeaderComponent&#45;&gt;SharedModule -->
<g id="edge20" class="edge">
<title>HeaderComponent&#45;&gt;SharedModule</title>
<path fill="none" stroke="black" d="M1425,-153.83C1425,-134.91 1425,-108 1425,-108 1425,-108 1045.51,-108 1045.51,-108"/>
<polygon fill="black" stroke="black" points="1045.51,-104.5 1035.51,-108 1045.51,-111.5 1045.51,-104.5"/>
</g>
</g>
</svg>
